# xmcd
#
# Track frame offsets:
#  150
#  12853
#  27535
#  42156
#  54818
#  69374
#  78748
#  90085
#  104055
#  120408
#  134155
#  149616
#  162654
#
# Disc length: 2336 seconds
#
# Revision: 0
# Processed by: cddbd v1.5.1PL2 Copyright (c) Steve Scherf et al.
# Submitted via: Collectorz.com Music Collector 6.9
#
DISCID=b2091e0d
DTITLE=Magnificent Seven - Live At The Grosvenor Hotel
DYEAR=1900
DGENRE=
TTITLE0=I'll Be Gone
TTITLE1=You Got To Me
TTITLE2=Beautiful Noise
TTITLE3=Burning Out Of Control
TTITLE4=Wild Thing
TTITLE5=All Shook Up
TTITLE6=Squeeze Box
TTITLE7=The Boat That I Row
TTITLE8=Sweet Caroline
TTITLE9=She's My Baby
TTITLE10=Keep Your Hands To Yourself
TTITLE11=That's All Right Mama
TTITLE12=Viva Las Vegas
EXTD=
EXTT0=
EXTT1=
EXTT2=
EXTT3=
EXTT4=
EXTT5=
EXTT6=
EXTT7=
EXTT8=
EXTT9=
EXTT10=
EXTT11=
EXTT12=
PLAYORDER=
